<?xml version="1.0" encoding="utf-8" standalone="no"?>
<!DOCTYPE svg PUBLIC "-//W3C//DTD SVG 1.1//EN"
  "http://www.w3.org/Graphics/SVG/1.1/DTD/svg11.dtd">
<svg xmlns:xlink="http://www.w3.org/1999/xlink" width="208.8pt" height="417.858094pt" viewBox="0 0 208.8 417.858094" xmlns="http://www.w3.org/2000/svg" version="1.1">
 <metadata>
  <rdf:RDF xmlns:dc="http://purl.org/dc/elements/1.1/" xmlns:cc="http://creativecommons.org/ns#" xmlns:rdf="http://www.w3.org/1999/02/22-rdf-syntax-ns#">
   <cc:Work>
    <dc:type rdf:resource="http://purl.org/dc/dcmitype/StillImage"/>
    <dc:date>2025-04-29T09:48:00.208085</dc:date>
    <dc:format>image/svg+xml</dc:format>
    <dc:creator>
     <cc:Agent>
      <dc:title>Matplotlib v3.6.2, https://matplotlib.org/</dc:title>
     </cc:Agent>
    </dc:creator>
   </cc:Work>
  </rdf:RDF>
 </metadata>
 <defs>
  <style type="text/css">*{stroke-linejoin: round; stroke-linecap: butt}</style>
 </defs>
 <g id="figure_1">
  <g id="patch_1">
   <path d="M 0 417.858094 
L 208.8 417.858094 
L 208.8 0 
L 0 0 
z
" style="fill: #ffffff"/>
  </g>
  <g id="axes_1">
   <g id="patch_2">
    <path d="M 118.269067 161.86853 
C 100.385779 161.552982 83.324194 154.219869 70.788891 141.461431 
C 58.253588 128.702994 51.22262 111.514692 51.22262 93.62862 
C 51.22262 75.742549 58.253588 58.554247 70.788891 45.795809 
C 83.324194 33.037372 100.385779 25.704259 118.269067 25.388711 
C 107.314045 21.43301 95.565862 20.172892 84.021115 21.715251 
C 72.476368 23.25761 61.471001 27.557564 51.938599 34.25035 
C 42.406197 40.943135 34.624148 49.833996 29.2526 60.168721 
C 23.881052 70.503446 21.076316 81.9813 21.076316 93.62862 
C 21.076316 105.27594 23.881052 116.753795 29.2526 127.08852 
C 34.624148 137.423245 42.406197 146.314105 51.938599 153.006891 
C 61.471001 159.699677 72.476368 163.999631 84.021115 165.54199 
C 95.565862 167.084349 107.314045 165.82423 118.269067 161.86853 
" clip-path="url(#pfc8a0a299c)" style="fill: #1f77b4; opacity: 0.4"/>
   </g>
   <g id="patch_3">
    <path d="M 118.269067 25.388711 
C 132.300959 30.455425 144.434343 39.728889 153.006891 51.938599 
C 161.579439 64.148309 166.180925 78.709988 166.180925 93.62862 
C 166.180925 108.547253 161.579439 123.108931 153.006891 135.318641 
C 144.434343 147.528352 132.300959 156.801816 118.269067 161.86853 
C 127.331552 162.028437 136.335761 160.381461 144.754872 157.023965 
C 153.173983 153.666469 160.840533 148.665237 167.305963 142.312882 
C 173.771394 135.960526 178.907102 128.383402 182.412607 120.024835 
C 185.918111 111.666268 187.723684 102.692516 187.723684 93.62862 
C 187.723684 84.564725 185.918111 75.590973 182.412607 67.232406 
C 178.907102 58.873839 173.771394 51.296714 167.305963 44.944359 
C 160.840533 38.592004 153.173983 33.590771 144.754872 30.233276 
C 136.335761 26.87578 127.331552 25.228804 118.269067 25.388711 
" clip-path="url(#pfc8a0a299c)" style="fill: #ff7f0e; opacity: 0.4"/>
   </g>
   <g id="patch_4">
    <path d="M 118.269067 161.86853 
C 132.300959 156.801816 144.434343 147.528352 153.006891 135.318641 
C 161.579439 123.108931 166.180925 108.547253 166.180925 93.62862 
C 166.180925 78.709988 161.579439 64.148309 153.006891 51.938599 
C 144.434343 39.728889 132.300959 30.455425 118.269067 25.388711 
C 100.385779 25.704259 83.324194 33.037372 70.788891 45.795809 
C 58.253588 58.554247 51.22262 75.742549 51.22262 93.62862 
C 51.22262 111.514692 58.253588 128.702994 70.788891 141.461431 
C 83.324194 154.219869 100.385779 161.552982 118.269067 161.86853 
" clip-path="url(#pfc8a0a299c)" style="fill: #c8ac88; opacity: 0.4"/>
   </g>
   <g id="text_1">
    <!-- 204 -->
    <g transform="translate(22.788218 97.491745) scale(0.14 -0.14)">
     <defs>
      <path id="DejaVuSans-32" d="M 1228 531 
L 3431 531 
L 3431 0 
L 469 0 
L 469 531 
Q 828 903 1448 1529 
Q 2069 2156 2228 2338 
Q 2531 2678 2651 2914 
Q 2772 3150 2772 3378 
Q 2772 3750 2511 3984 
Q 2250 4219 1831 4219 
Q 1534 4219 1204 4116 
Q 875 4013 500 3803 
L 500 4441 
Q 881 4594 1212 4672 
Q 1544 4750 1819 4750 
Q 2544 4750 2975 4387 
Q 3406 4025 3406 3419 
Q 3406 3131 3298 2873 
Q 3191 2616 2906 2266 
Q 2828 2175 2409 1742 
Q 1991 1309 1228 531 
z
" transform="scale(0.015625)"/>
      <path id="DejaVuSans-30" d="M 2034 4250 
Q 1547 4250 1301 3770 
Q 1056 3291 1056 2328 
Q 1056 1369 1301 889 
Q 1547 409 2034 409 
Q 2525 409 2770 889 
Q 3016 1369 3016 2328 
Q 3016 3291 2770 3770 
Q 2525 4250 2034 4250 
z
M 2034 4750 
Q 2819 4750 3233 4129 
Q 3647 3509 3647 2328 
Q 3647 1150 3233 529 
Q 2819 -91 2034 -91 
Q 1250 -91 836 529 
Q 422 1150 422 2328 
Q 422 3509 836 4129 
Q 1250 4750 2034 4750 
z
" transform="scale(0.015625)"/>
      <path id="DejaVuSans-34" d="M 2419 4116 
L 825 1625 
L 2419 1625 
L 2419 4116 
z
M 2253 4666 
L 3047 4666 
L 3047 1625 
L 3713 1625 
L 3713 1100 
L 3047 1100 
L 3047 0 
L 2419 0 
L 2419 1100 
L 313 1100 
L 313 1709 
L 2253 4666 
z
" transform="scale(0.015625)"/>
     </defs>
     <use xlink:href="#DejaVuSans-32"/>
     <use xlink:href="#DejaVuSans-30" x="63.623047"/>
     <use xlink:href="#DejaVuSans-34" x="127.246094"/>
    </g>
   </g>
   <g id="text_2">
    <!-- 120 -->
    <g transform="translate(163.591054 97.491745) scale(0.14 -0.14)">
     <defs>
      <path id="DejaVuSans-31" d="M 794 531 
L 1825 531 
L 1825 4091 
L 703 3866 
L 703 4441 
L 1819 4666 
L 2450 4666 
L 2450 531 
L 3481 531 
L 3481 0 
L 794 0 
L 794 531 
z
" transform="scale(0.015625)"/>
     </defs>
     <use xlink:href="#DejaVuSans-31"/>
     <use xlink:href="#DejaVuSans-32" x="63.623047"/>
     <use xlink:href="#DejaVuSans-30" x="127.246094"/>
    </g>
   </g>
   <g id="text_3">
    <!-- 526 -->
    <g transform="translate(95.340523 97.491745) scale(0.14 -0.14)">
     <defs>
      <path id="DejaVuSans-35" d="M 691 4666 
L 3169 4666 
L 3169 4134 
L 1269 4134 
L 1269 2991 
Q 1406 3038 1543 3061 
Q 1681 3084 1819 3084 
Q 2600 3084 3056 2656 
Q 3513 2228 3513 1497 
Q 3513 744 3044 326 
Q 2575 -91 1722 -91 
Q 1428 -91 1123 -41 
Q 819 9 494 109 
L 494 744 
Q 775 591 1075 516 
Q 1375 441 1709 441 
Q 2250 441 2565 725 
Q 2881 1009 2881 1497 
Q 2881 1984 2565 2268 
Q 2250 2553 1709 2553 
Q 1456 2553 1204 2497 
Q 953 2441 691 2322 
L 691 4666 
z
" transform="scale(0.015625)"/>
      <path id="DejaVuSans-36" d="M 2113 2584 
Q 1688 2584 1439 2293 
Q 1191 2003 1191 1497 
Q 1191 994 1439 701 
Q 1688 409 2113 409 
Q 2538 409 2786 701 
Q 3034 994 3034 1497 
Q 3034 2003 2786 2293 
Q 2538 2584 2113 2584 
z
M 3366 4563 
L 3366 3988 
Q 3128 4100 2886 4159 
Q 2644 4219 2406 4219 
Q 1781 4219 1451 3797 
Q 1122 3375 1075 2522 
Q 1259 2794 1537 2939 
Q 1816 3084 2150 3084 
Q 2853 3084 3261 2657 
Q 3669 2231 3669 1497 
Q 3669 778 3244 343 
Q 2819 -91 2113 -91 
Q 1303 -91 875 529 
Q 447 1150 447 2328 
Q 447 3434 972 4092 
Q 1497 4750 2381 4750 
Q 2619 4750 2861 4703 
Q 3103 4656 3366 4563 
z
" transform="scale(0.015625)"/>
     </defs>
     <use xlink:href="#DejaVuSans-35"/>
     <use xlink:href="#DejaVuSans-32" x="63.623047"/>
     <use xlink:href="#DejaVuSans-36" x="127.246094"/>
    </g>
   </g>
   <g id="text_4">
    <!-- transcription factors -->
    <g transform="translate(24.737027 181.301516) scale(0.16 -0.16)">
     <defs>
      <path id="DejaVuSans-74" d="M 1172 4494 
L 1172 3500 
L 2356 3500 
L 2356 3053 
L 1172 3053 
L 1172 1153 
Q 1172 725 1289 603 
Q 1406 481 1766 481 
L 2356 481 
L 2356 0 
L 1766 0 
Q 1100 0 847 248 
Q 594 497 594 1153 
L 594 3053 
L 172 3053 
L 172 3500 
L 594 3500 
L 594 4494 
L 1172 4494 
z
" transform="scale(0.015625)"/>
      <path id="DejaVuSans-72" d="M 2631 2963 
Q 2534 3019 2420 3045 
Q 2306 3072 2169 3072 
Q 1681 3072 1420 2755 
Q 1159 2438 1159 1844 
L 1159 0 
L 581 0 
L 581 3500 
L 1159 3500 
L 1159 2956 
Q 1341 3275 1631 3429 
Q 1922 3584 2338 3584 
Q 2397 3584 2469 3576 
Q 2541 3569 2628 3553 
L 2631 2963 
z
" transform="scale(0.015625)"/>
      <path id="DejaVuSans-61" d="M 2194 1759 
Q 1497 1759 1228 1600 
Q 959 1441 959 1056 
Q 959 750 1161 570 
Q 1363 391 1709 391 
Q 2188 391 2477 730 
Q 2766 1069 2766 1631 
L 2766 1759 
L 2194 1759 
z
M 3341 1997 
L 3341 0 
L 2766 0 
L 2766 531 
Q 2569 213 2275 61 
Q 1981 -91 1556 -91 
Q 1019 -91 701 211 
Q 384 513 384 1019 
Q 384 1609 779 1909 
Q 1175 2209 1959 2209 
L 2766 2209 
L 2766 2266 
Q 2766 2663 2505 2880 
Q 2244 3097 1772 3097 
Q 1472 3097 1187 3025 
Q 903 2953 641 2809 
L 641 3341 
Q 956 3463 1253 3523 
Q 1550 3584 1831 3584 
Q 2591 3584 2966 3190 
Q 3341 2797 3341 1997 
z
" transform="scale(0.015625)"/>
      <path id="DejaVuSans-6e" d="M 3513 2113 
L 3513 0 
L 2938 0 
L 2938 2094 
Q 2938 2591 2744 2837 
Q 2550 3084 2163 3084 
Q 1697 3084 1428 2787 
Q 1159 2491 1159 1978 
L 1159 0 
L 581 0 
L 581 3500 
L 1159 3500 
L 1159 2956 
Q 1366 3272 1645 3428 
Q 1925 3584 2291 3584 
Q 2894 3584 3203 3211 
Q 3513 2838 3513 2113 
z
" transform="scale(0.015625)"/>
      <path id="DejaVuSans-73" d="M 2834 3397 
L 2834 2853 
Q 2591 2978 2328 3040 
Q 2066 3103 1784 3103 
Q 1356 3103 1142 2972 
Q 928 2841 928 2578 
Q 928 2378 1081 2264 
Q 1234 2150 1697 2047 
L 1894 2003 
Q 2506 1872 2764 1633 
Q 3022 1394 3022 966 
Q 3022 478 2636 193 
Q 2250 -91 1575 -91 
Q 1294 -91 989 -36 
Q 684 19 347 128 
L 347 722 
Q 666 556 975 473 
Q 1284 391 1588 391 
Q 1994 391 2212 530 
Q 2431 669 2431 922 
Q 2431 1156 2273 1281 
Q 2116 1406 1581 1522 
L 1381 1569 
Q 847 1681 609 1914 
Q 372 2147 372 2553 
Q 372 3047 722 3315 
Q 1072 3584 1716 3584 
Q 2034 3584 2315 3537 
Q 2597 3491 2834 3397 
z
" transform="scale(0.015625)"/>
      <path id="DejaVuSans-63" d="M 3122 3366 
L 3122 2828 
Q 2878 2963 2633 3030 
Q 2388 3097 2138 3097 
Q 1578 3097 1268 2742 
Q 959 2388 959 1747 
Q 959 1106 1268 751 
Q 1578 397 2138 397 
Q 2388 397 2633 464 
Q 2878 531 3122 666 
L 3122 134 
Q 2881 22 2623 -34 
Q 2366 -91 2075 -91 
Q 1284 -91 818 406 
Q 353 903 353 1747 
Q 353 2603 823 3093 
Q 1294 3584 2113 3584 
Q 2378 3584 2631 3529 
Q 2884 3475 3122 3366 
z
" transform="scale(0.015625)"/>
      <path id="DejaVuSans-69" d="M 603 3500 
L 1178 3500 
L 1178 0 
L 603 0 
L 603 3500 
z
M 603 4863 
L 1178 4863 
L 1178 4134 
L 603 4134 
L 603 4863 
z
" transform="scale(0.015625)"/>
      <path id="DejaVuSans-70" d="M 1159 525 
L 1159 -1331 
L 581 -1331 
L 581 3500 
L 1159 3500 
L 1159 2969 
Q 1341 3281 1617 3432 
Q 1894 3584 2278 3584 
Q 2916 3584 3314 3078 
Q 3713 2572 3713 1747 
Q 3713 922 3314 415 
Q 2916 -91 2278 -91 
Q 1894 -91 1617 61 
Q 1341 213 1159 525 
z
M 3116 1747 
Q 3116 2381 2855 2742 
Q 2594 3103 2138 3103 
Q 1681 3103 1420 2742 
Q 1159 2381 1159 1747 
Q 1159 1113 1420 752 
Q 1681 391 2138 391 
Q 2594 391 2855 752 
Q 3116 1113 3116 1747 
z
" transform="scale(0.015625)"/>
      <path id="DejaVuSans-6f" d="M 1959 3097 
Q 1497 3097 1228 2736 
Q 959 2375 959 1747 
Q 959 1119 1226 758 
Q 1494 397 1959 397 
Q 2419 397 2687 759 
Q 2956 1122 2956 1747 
Q 2956 2369 2687 2733 
Q 2419 3097 1959 3097 
z
M 1959 3584 
Q 2709 3584 3137 3096 
Q 3566 2609 3566 1747 
Q 3566 888 3137 398 
Q 2709 -91 1959 -91 
Q 1206 -91 779 398 
Q 353 888 353 1747 
Q 353 2609 779 3096 
Q 1206 3584 1959 3584 
z
" transform="scale(0.015625)"/>
      <path id="DejaVuSans-20" transform="scale(0.015625)"/>
      <path id="DejaVuSans-66" d="M 2375 4863 
L 2375 4384 
L 1825 4384 
Q 1516 4384 1395 4259 
Q 1275 4134 1275 3809 
L 1275 3500 
L 2222 3500 
L 2222 3053 
L 1275 3053 
L 1275 0 
L 697 0 
L 697 3053 
L 147 3053 
L 147 3500 
L 697 3500 
L 697 3744 
Q 697 4328 969 4595 
Q 1241 4863 1831 4863 
L 2375 4863 
z
" transform="scale(0.015625)"/>
     </defs>
     <use xlink:href="#DejaVuSans-74"/>
     <use xlink:href="#DejaVuSans-72" x="39.208984"/>
     <use xlink:href="#DejaVuSans-61" x="80.322266"/>
     <use xlink:href="#DejaVuSans-6e" x="141.601562"/>
     <use xlink:href="#DejaVuSans-73" x="204.980469"/>
     <use xlink:href="#DejaVuSans-63" x="257.080078"/>
     <use xlink:href="#DejaVuSans-72" x="312.060547"/>
     <use xlink:href="#DejaVuSans-69" x="353.173828"/>
     <use xlink:href="#DejaVuSans-70" x="380.957031"/>
     <use xlink:href="#DejaVuSans-74" x="444.433594"/>
     <use xlink:href="#DejaVuSans-69" x="483.642578"/>
     <use xlink:href="#DejaVuSans-6f" x="511.425781"/>
     <use xlink:href="#DejaVuSans-6e" x="572.607422"/>
     <use xlink:href="#DejaVuSans-20" x="635.986328"/>
     <use xlink:href="#DejaVuSans-66" x="667.773438"/>
     <use xlink:href="#DejaVuSans-61" x="702.978516"/>
     <use xlink:href="#DejaVuSans-63" x="764.257812"/>
     <use xlink:href="#DejaVuSans-74" x="819.238281"/>
     <use xlink:href="#DejaVuSans-6f" x="858.447266"/>
     <use xlink:href="#DejaVuSans-72" x="919.628906"/>
     <use xlink:href="#DejaVuSans-73" x="960.742188"/>
    </g>
   </g>
  </g>
  <g id="axes_2">
   <g id="patch_5">
    <path d="M 16.92 226.326825 
L 94.68 226.326825 
L 94.68 197.326107 
L 16.92 197.326107 
z
" clip-path="url(#p59e90880db)" style="fill: #1f77b4; opacity: 0.4"/>
   </g>
   <g id="patch_6">
    <path d="M 114.12 226.326825 
L 191.88 226.326825 
L 191.88 197.326107 
L 114.12 197.326107 
z
" clip-path="url(#p59e90880db)" style="fill: #ff7f0e; opacity: 0.4"/>
   </g>
   <g id="text_5">
    <!-- CIS-BP -->
    <g transform="translate(23.382812 217.345216) scale(0.2 -0.2)">
     <defs>
      <path id="DejaVuSans-43" d="M 4122 4306 
L 4122 3641 
Q 3803 3938 3442 4084 
Q 3081 4231 2675 4231 
Q 1875 4231 1450 3742 
Q 1025 3253 1025 2328 
Q 1025 1406 1450 917 
Q 1875 428 2675 428 
Q 3081 428 3442 575 
Q 3803 722 4122 1019 
L 4122 359 
Q 3791 134 3420 21 
Q 3050 -91 2638 -91 
Q 1578 -91 968 557 
Q 359 1206 359 2328 
Q 359 3453 968 4101 
Q 1578 4750 2638 4750 
Q 3056 4750 3426 4639 
Q 3797 4528 4122 4306 
z
" transform="scale(0.015625)"/>
      <path id="DejaVuSans-49" d="M 628 4666 
L 1259 4666 
L 1259 0 
L 628 0 
L 628 4666 
z
" transform="scale(0.015625)"/>
      <path id="DejaVuSans-53" d="M 3425 4513 
L 3425 3897 
Q 3066 4069 2747 4153 
Q 2428 4238 2131 4238 
Q 1616 4238 1336 4038 
Q 1056 3838 1056 3469 
Q 1056 3159 1242 3001 
Q 1428 2844 1947 2747 
L 2328 2669 
Q 3034 2534 3370 2195 
Q 3706 1856 3706 1288 
Q 3706 609 3251 259 
Q 2797 -91 1919 -91 
Q 1588 -91 1214 -16 
Q 841 59 441 206 
L 441 856 
Q 825 641 1194 531 
Q 1563 422 1919 422 
Q 2459 422 2753 634 
Q 3047 847 3047 1241 
Q 3047 1584 2836 1778 
Q 2625 1972 2144 2069 
L 1759 2144 
Q 1053 2284 737 2584 
Q 422 2884 422 3419 
Q 422 4038 858 4394 
Q 1294 4750 2059 4750 
Q 2388 4750 2728 4690 
Q 3069 4631 3425 4513 
z
" transform="scale(0.015625)"/>
      <path id="DejaVuSans-2d" d="M 313 2009 
L 1997 2009 
L 1997 1497 
L 313 1497 
L 313 2009 
z
" transform="scale(0.015625)"/>
      <path id="DejaVuSans-42" d="M 1259 2228 
L 1259 519 
L 2272 519 
Q 2781 519 3026 730 
Q 3272 941 3272 1375 
Q 3272 1813 3026 2020 
Q 2781 2228 2272 2228 
L 1259 2228 
z
M 1259 4147 
L 1259 2741 
L 2194 2741 
Q 2656 2741 2882 2914 
Q 3109 3088 3109 3444 
Q 3109 3797 2882 3972 
Q 2656 4147 2194 4147 
L 1259 4147 
z
M 628 4666 
L 2241 4666 
Q 2963 4666 3353 4366 
Q 3744 4066 3744 3513 
Q 3744 3084 3544 2831 
Q 3344 2578 2956 2516 
Q 3422 2416 3680 2098 
Q 3938 1781 3938 1306 
Q 3938 681 3513 340 
Q 3088 0 2303 0 
L 628 0 
L 628 4666 
z
" transform="scale(0.015625)"/>
      <path id="DejaVuSans-50" d="M 1259 4147 
L 1259 2394 
L 2053 2394 
Q 2494 2394 2734 2622 
Q 2975 2850 2975 3272 
Q 2975 3691 2734 3919 
Q 2494 4147 2053 4147 
L 1259 4147 
z
M 628 4666 
L 2053 4666 
Q 2838 4666 3239 4311 
Q 3641 3956 3641 3272 
Q 3641 2581 3239 2228 
Q 2838 1875 2053 1875 
L 1259 1875 
L 1259 0 
L 628 0 
L 628 4666 
z
" transform="scale(0.015625)"/>
     </defs>
     <use xlink:href="#DejaVuSans-43"/>
     <use xlink:href="#DejaVuSans-49" x="69.824219"/>
     <use xlink:href="#DejaVuSans-53" x="99.316406"/>
     <use xlink:href="#DejaVuSans-2d" x="162.792969"/>
     <use xlink:href="#DejaVuSans-42" x="195.251953"/>
     <use xlink:href="#DejaVuSans-50" x="263.855469"/>
    </g>
   </g>
   <g id="text_6">
    <!-- JASPAR -->
    <g transform="translate(117.854687 217.345216) scale(0.2 -0.2)">
     <defs>
      <path id="DejaVuSans-4a" d="M 628 4666 
L 1259 4666 
L 1259 325 
Q 1259 -519 939 -900 
Q 619 -1281 -91 -1281 
L -331 -1281 
L -331 -750 
L -134 -750 
Q 284 -750 456 -515 
Q 628 -281 628 325 
L 628 4666 
z
" transform="scale(0.015625)"/>
      <path id="DejaVuSans-41" d="M 2188 4044 
L 1331 1722 
L 3047 1722 
L 2188 4044 
z
M 1831 4666 
L 2547 4666 
L 4325 0 
L 3669 0 
L 3244 1197 
L 1141 1197 
L 716 0 
L 50 0 
L 1831 4666 
z
" transform="scale(0.015625)"/>
      <path id="DejaVuSans-52" d="M 2841 2188 
Q 3044 2119 3236 1894 
Q 3428 1669 3622 1275 
L 4263 0 
L 3584 0 
L 2988 1197 
Q 2756 1666 2539 1819 
Q 2322 1972 1947 1972 
L 1259 1972 
L 1259 0 
L 628 0 
L 628 4666 
L 2053 4666 
Q 2853 4666 3247 4331 
Q 3641 3997 3641 3322 
Q 3641 2881 3436 2590 
Q 3231 2300 2841 2188 
z
M 1259 4147 
L 1259 2491 
L 2053 2491 
Q 2509 2491 2742 2702 
Q 2975 2913 2975 3322 
Q 2975 3731 2742 3939 
Q 2509 4147 2053 4147 
L 1259 4147 
z
" transform="scale(0.015625)"/>
     </defs>
     <use xlink:href="#DejaVuSans-4a"/>
     <use xlink:href="#DejaVuSans-41" x="27.742188"/>
     <use xlink:href="#DejaVuSans-53" x="96.150391"/>
     <use xlink:href="#DejaVuSans-50" x="159.626953"/>
     <use xlink:href="#DejaVuSans-41" x="213.554688"/>
     <use xlink:href="#DejaVuSans-52" x="281.962891"/>
    </g>
   </g>
  </g>
  <g id="axes_3">
   <g id="patch_7">
    <path d="M 72.572898 377.16897 
C 60.287126 364.557801 53.404895 347.63061 53.404895 330.024311 
C 53.404895 312.418012 60.287126 295.490821 72.572898 282.879652 
C 65.970748 282.193224 59.29744 282.901239 52.986303 284.957722 
C 46.675167 287.014205 40.86583 290.37366 35.935521 294.817939 
C 31.005212 299.262218 27.063008 304.692997 24.364897 310.757629 
C 21.666786 316.822261 20.272461 323.386573 20.272461 330.024311 
C 20.272461 336.662049 21.666786 343.226361 24.364897 349.290993 
C 27.063008 355.355625 31.005212 360.786404 35.935521 365.230683 
C 40.86583 369.674962 46.675167 373.034417 52.986303 375.0909 
C 59.29744 377.147383 65.970748 377.855398 72.572898 377.16897 
" clip-path="url(#p80afeea60f)" style="fill: #1f77b4; opacity: 0.4"/>
   </g>
   <g id="patch_8">
    <path d="M 72.572898 282.879652 
C 84.228951 284.091537 95.031274 289.584154 102.87762 298.288584 
C 110.723967 306.993013 115.070035 318.305427 115.070035 330.024311 
C 115.070035 341.743195 110.723967 353.055609 102.87762 361.760038 
C 95.031274 370.464468 84.228951 375.957085 72.572898 377.16897 
C 77.235474 381.955038 82.582371 386.023049 88.438763 389.239993 
C 94.295156 392.456937 100.596513 394.787367 107.136804 396.155087 
C 113.677095 397.522807 120.384252 397.912746 127.038976 397.312154 
C 133.6937 396.711562 140.222663 395.127057 146.412392 392.610447 
C 152.60212 390.093837 158.38441 386.672852 163.570201 382.459345 
C 168.755991 378.245839 173.288142 373.28624 177.018467 367.742709 
C 180.748792 362.199177 183.636188 356.132798 185.586246 349.741919 
C 187.536305 343.35104 188.527539 336.706082 188.527539 330.024311 
C 188.527539 323.34254 187.536305 316.697582 185.586246 310.306703 
C 183.636188 303.915824 180.748792 297.849445 177.018467 292.305913 
C 173.288142 286.762382 168.755991 281.802783 163.570201 277.589277 
C 158.38441 273.37577 152.60212 269.954785 146.412392 267.438175 
C 140.222663 264.921565 133.6937 263.33706 127.038976 262.736468 
C 120.384252 262.135876 113.677095 262.525815 107.136804 263.893535 
C 100.596513 265.261255 94.295156 267.591685 88.438763 270.808629 
C 82.582371 274.025574 77.235474 278.093584 72.572898 282.879652 
" clip-path="url(#p80afeea60f)" style="fill: #ff7f0e; opacity: 0.4"/>
   </g>
   <g id="patch_9">
    <path d="M 72.572898 377.16897 
C 84.228951 375.957085 95.031274 370.464468 102.87762 361.760038 
C 110.723967 353.055609 115.070035 341.743195 115.070035 330.024311 
C 115.070035 318.305427 110.723967 306.993013 102.87762 298.288584 
C 95.031274 289.584154 84.228951 284.091537 72.572898 282.879652 
C 60.287126 295.490821 53.404895 312.418012 53.404895 330.024311 
C 53.404895 347.63061 60.287126 364.557801 72.572898 377.16897 
" clip-path="url(#p80afeea60f)" style="fill: #c8ac88; opacity: 0.4"/>
   </g>
   <g id="text_7">
    <!-- 14776 -->
    <g transform="translate(14.569928 333.887436) scale(0.14 -0.14)">
     <defs>
      <path id="DejaVuSans-37" d="M 525 4666 
L 3525 4666 
L 3525 4397 
L 1831 0 
L 1172 0 
L 2766 4134 
L 525 4134 
L 525 4666 
z
" transform="scale(0.015625)"/>
     </defs>
     <use xlink:href="#DejaVuSans-31"/>
     <use xlink:href="#DejaVuSans-34" x="63.623047"/>
     <use xlink:href="#DejaVuSans-37" x="127.246094"/>
     <use xlink:href="#DejaVuSans-37" x="190.869141"/>
     <use xlink:href="#DejaVuSans-36" x="254.492188"/>
    </g>
   </g>
   <g id="text_8">
    <!-- 53916 -->
    <g transform="translate(129.530037 333.887436) scale(0.14 -0.14)">
     <defs>
      <path id="DejaVuSans-33" d="M 2597 2516 
Q 3050 2419 3304 2112 
Q 3559 1806 3559 1356 
Q 3559 666 3084 287 
Q 2609 -91 1734 -91 
Q 1441 -91 1130 -33 
Q 819 25 488 141 
L 488 750 
Q 750 597 1062 519 
Q 1375 441 1716 441 
Q 2309 441 2620 675 
Q 2931 909 2931 1356 
Q 2931 1769 2642 2001 
Q 2353 2234 1838 2234 
L 1294 2234 
L 1294 2753 
L 1863 2753 
Q 2328 2753 2575 2939 
Q 2822 3125 2822 3475 
Q 2822 3834 2567 4026 
Q 2313 4219 1838 4219 
Q 1578 4219 1281 4162 
Q 984 4106 628 3988 
L 628 4550 
Q 988 4650 1302 4700 
Q 1616 4750 1894 4750 
Q 2613 4750 3031 4423 
Q 3450 4097 3450 3541 
Q 3450 3153 3228 2886 
Q 3006 2619 2597 2516 
z
" transform="scale(0.015625)"/>
      <path id="DejaVuSans-39" d="M 703 97 
L 703 672 
Q 941 559 1184 500 
Q 1428 441 1663 441 
Q 2288 441 2617 861 
Q 2947 1281 2994 2138 
Q 2813 1869 2534 1725 
Q 2256 1581 1919 1581 
Q 1219 1581 811 2004 
Q 403 2428 403 3163 
Q 403 3881 828 4315 
Q 1253 4750 1959 4750 
Q 2769 4750 3195 4129 
Q 3622 3509 3622 2328 
Q 3622 1225 3098 567 
Q 2575 -91 1691 -91 
Q 1453 -91 1209 -44 
Q 966 3 703 97 
z
M 1959 2075 
Q 2384 2075 2632 2365 
Q 2881 2656 2881 3163 
Q 2881 3666 2632 3958 
Q 2384 4250 1959 4250 
Q 1534 4250 1286 3958 
Q 1038 3666 1038 3163 
Q 1038 2656 1286 2365 
Q 1534 2075 1959 2075 
z
" transform="scale(0.015625)"/>
     </defs>
     <use xlink:href="#DejaVuSans-35"/>
     <use xlink:href="#DejaVuSans-33" x="63.623047"/>
     <use xlink:href="#DejaVuSans-39" x="127.246094"/>
     <use xlink:href="#DejaVuSans-31" x="190.869141"/>
     <use xlink:href="#DejaVuSans-36" x="254.492188"/>
    </g>
   </g>
   <g id="text_9">
    <!-- 23161 -->
    <g transform="translate(61.968715 333.887436) scale(0.14 -0.14)">
     <use xlink:href="#DejaVuSans-32"/>
     <use xlink:href="#DejaVuSans-33" x="63.623047"/>
     <use xlink:href="#DejaVuSans-31" x="127.246094"/>
     <use xlink:href="#DejaVuSans-36" x="190.869141"/>
     <use xlink:href="#DejaVuSans-31" x="254.492188"/>
    </g>
   </g>
   <g id="text_10">
    <!-- target genes -->
    <g transform="translate(52.358292 256.004547) scale(0.16 -0.16)">
     <defs>
      <path id="DejaVuSans-67" d="M 2906 1791 
Q 2906 2416 2648 2759 
Q 2391 3103 1925 3103 
Q 1463 3103 1205 2759 
Q 947 2416 947 1791 
Q 947 1169 1205 825 
Q 1463 481 1925 481 
Q 2391 481 2648 825 
Q 2906 1169 2906 1791 
z
M 3481 434 
Q 3481 -459 3084 -895 
Q 2688 -1331 1869 -1331 
Q 1566 -1331 1297 -1286 
Q 1028 -1241 775 -1147 
L 775 -588 
Q 1028 -725 1275 -790 
Q 1522 -856 1778 -856 
Q 2344 -856 2625 -561 
Q 2906 -266 2906 331 
L 2906 616 
Q 2728 306 2450 153 
Q 2172 0 1784 0 
Q 1141 0 747 490 
Q 353 981 353 1791 
Q 353 2603 747 3093 
Q 1141 3584 1784 3584 
Q 2172 3584 2450 3431 
Q 2728 3278 2906 2969 
L 2906 3500 
L 3481 3500 
L 3481 434 
z
" transform="scale(0.015625)"/>
      <path id="DejaVuSans-65" d="M 3597 1894 
L 3597 1613 
L 953 1613 
Q 991 1019 1311 708 
Q 1631 397 2203 397 
Q 2534 397 2845 478 
Q 3156 559 3463 722 
L 3463 178 
Q 3153 47 2828 -22 
Q 2503 -91 2169 -91 
Q 1331 -91 842 396 
Q 353 884 353 1716 
Q 353 2575 817 3079 
Q 1281 3584 2069 3584 
Q 2775 3584 3186 3129 
Q 3597 2675 3597 1894 
z
M 3022 2063 
Q 3016 2534 2758 2815 
Q 2500 3097 2075 3097 
Q 1594 3097 1305 2825 
Q 1016 2553 972 2059 
L 3022 2063 
z
" transform="scale(0.015625)"/>
     </defs>
     <use xlink:href="#DejaVuSans-74"/>
     <use xlink:href="#DejaVuSans-61" x="39.208984"/>
     <use xlink:href="#DejaVuSans-72" x="100.488281"/>
     <use xlink:href="#DejaVuSans-67" x="139.851562"/>
     <use xlink:href="#DejaVuSans-65" x="203.328125"/>
     <use xlink:href="#DejaVuSans-74" x="264.851562"/>
     <use xlink:href="#DejaVuSans-20" x="304.060547"/>
     <use xlink:href="#DejaVuSans-67" x="335.847656"/>
     <use xlink:href="#DejaVuSans-65" x="399.324219"/>
     <use xlink:href="#DejaVuSans-6e" x="460.847656"/>
     <use xlink:href="#DejaVuSans-65" x="524.226562"/>
     <use xlink:href="#DejaVuSans-73" x="585.75"/>
    </g>
   </g>
  </g>
 </g>
 <defs>
  <clipPath id="pfc8a0a299c">
   <rect x="7.2" y="7.2" width="194.4" height="172.857241"/>
  </clipPath>
  <clipPath id="p59e90880db">
   <rect x="7.2" y="197.326107" width="194.4" height="29.000718"/>
  </clipPath>
  <clipPath id="p80afeea60f">
   <rect x="7.2" y="249.390528" width="194.4" height="161.267565"/>
  </clipPath>
 </defs>
</svg>
